<svg xmlns="http://www.w3.org/2000/svg" width="149" height="43" viewBox="0 0 149 43" fill="none"><path d="M27.9668 39.4996V15.8132C27.9668 15.8132 26.6712 14.4511 25.9071 11.0626C25.1762 7.67408 23.6481 6.27881 14.4459 6.27881C5.24376 6.27881 3.74882 7.67408 2.98474 11.0626C2.22066 14.4511 0.925049 15.8132 0.925049 15.8132V39.4996" stroke="#121215" stroke-width="1.6" stroke-miterlimit="10" stroke-linecap="round" stroke-linejoin="round"></path><path d="M10.1937 28.0383C7.10412 28.0383 4.01459 28.0383 0.925049 28.0383" stroke="#121215" stroke-width="1.6" stroke-miterlimit="10" stroke-linecap="round" stroke-linejoin="round"></path><path d="M27.9667 28.0383C23.8473 28.0383 19.6947 28.0383 15.5753 28.0383" stroke="#121215" stroke-width="1.6" stroke-miterlimit="10" stroke-linecap="round" stroke-linejoin="round"></path><path d="M0.925049 22.1583C7.63566 20.5305 14.6785 20.2315 21.522 21.0288" stroke="#121215" stroke-width="1.6" stroke-miterlimit="10" stroke-linecap="round" stroke-linejoin="round"></path><path d="M2.22058 26.7428V23.2214C6.00775 22.3909 10.2268 21.959 14.4458 21.959C18.6649 21.959 22.8839 22.3909 26.6711 23.2214V26.7428H2.22058Z" fill="#9E713F"></path><path d="M24.1795 10.6306V19.7663C21.1232 19.268 17.8676 19.0023 14.4791 19.0023C11.0905 19.0023 7.76846 19.268 4.74536 19.7663V10.6306C5.54266 8.37161 7.36981 7.4082 14.4458 7.4082C21.5219 7.4082 23.3822 8.37161 24.1795 10.6306Z" fill="#C49863"></path><path d="M25.3424 15.3147V21.5934C26.2394 21.7595 27.1031 21.9589 28.0001 22.1582" stroke="#121215" stroke-width="1.6" stroke-miterlimit="10" stroke-linecap="round" stroke-linejoin="round"></path><path d="M3.58252 21.5934V15.3147" stroke="#121215" stroke-width="1.6" stroke-miterlimit="10" stroke-linecap="round" stroke-linejoin="round"></path><path d="M5.57593 28.0383V33.1876" stroke="#121215" stroke-width="1.6" stroke-miterlimit="10" stroke-linecap="round" stroke-linejoin="round"></path><path d="M23.3491 28.0383V33.1876" stroke="#121215" stroke-width="1.6" stroke-miterlimit="10" stroke-linecap="round" stroke-linejoin="round"></path><path d="M53.3938 10.132C53.9605 10.132 54.4478 10.3247 54.8558 10.71C55.2865 11.0953 55.5018 11.56 55.5018 12.104C55.5018 12.3987 55.4338 12.7047 55.2978 13.022L46.8998 32.674C46.6958 33.1047 46.4125 33.4333 46.0498 33.66C45.6872 33.8867 45.3018 34 44.8938 34C44.5085 33.9773 44.1458 33.864 43.8058 33.66C43.4885 33.4333 43.2392 33.116 43.0578 32.708L34.6598 12.988C34.5465 12.7613 34.4898 12.478 34.4898 12.138C34.4898 11.526 34.7165 11.0387 35.1698 10.676C35.6232 10.2907 36.0878 10.098 36.5638 10.098C36.9492 10.098 37.3118 10.2113 37.6518 10.438C37.9918 10.6647 38.2525 10.9933 38.4338 11.424L45.2678 27.506L51.5238 11.424C51.7052 11.016 51.9658 10.6987 52.3058 10.472C52.6458 10.2453 53.0085 10.132 53.3938 10.132ZM72.5268 30.09C73.1162 30.09 73.6035 30.294 73.9888 30.702C74.3968 31.0873 74.6008 31.5407 74.6008 32.062C74.6008 32.6287 74.3968 33.0933 73.9888 33.456C73.6035 33.8187 73.1162 34 72.5268 34H61.1368C60.5475 34 60.0488 33.8073 59.6408 33.422C59.2555 33.014 59.0628 32.5153 59.0628 31.926V12.274C59.0628 11.6847 59.2555 11.1973 59.6408 10.812C60.0488 10.404 60.5475 10.2 61.1368 10.2H72.5268C73.1162 10.2 73.6035 10.3927 73.9888 10.778C74.3968 11.1407 74.6008 11.6167 74.6008 12.206C74.6008 12.7727 74.4082 13.2373 74.0228 13.6C73.6375 13.94 73.1388 14.11 72.5268 14.11H63.3128V19.89H70.9968C71.5862 19.89 72.0735 20.0827 72.4588 20.468C72.8668 20.8307 73.0708 21.3067 73.0708 21.896C73.0708 22.4627 72.8782 22.9273 72.4928 23.29C72.1075 23.63 71.6088 23.8 70.9968 23.8H63.3128V30.09H72.5268ZM88.7198 10.2C90.8505 10.2 92.6752 10.7327 94.1938 11.798C95.7352 12.8407 96.9025 14.2687 97.6959 16.082C98.5118 17.8727 98.9198 19.8787 98.9198 22.1C98.9198 24.3213 98.5118 26.3387 97.6959 28.152C96.9025 29.9427 95.7352 31.3707 94.1938 32.436C92.6752 33.4787 90.8505 34 88.7198 34H80.5938C80.0045 34 79.5058 33.8073 79.0978 33.422C78.7125 33.014 78.5198 32.5153 78.5198 31.926V12.274C78.5198 11.6847 78.7125 11.1973 79.0978 10.812C79.5058 10.404 80.0045 10.2 80.5938 10.2H88.7198ZM88.3798 30.09C90.4198 30.09 91.9498 29.342 92.9698 27.846C93.9898 26.3273 94.4998 24.412 94.4998 22.1C94.4998 19.788 93.9785 17.884 92.9358 16.388C91.9158 14.8693 90.3972 14.11 88.3798 14.11H82.7698V30.09H88.3798ZM117.105 20.808C118.306 21.284 119.281 22.0093 120.029 22.984C120.799 23.9587 121.185 25.2167 121.185 26.758C121.185 29.4553 120.414 31.3367 118.873 32.402C117.331 33.4673 115.495 34 113.365 34H104.899C104.309 34 103.811 33.8073 103.403 33.422C103.017 33.014 102.825 32.5153 102.825 31.926V12.274C102.825 11.6847 103.017 11.1973 103.403 10.812C103.811 10.404 104.309 10.2 104.899 10.2H113.467C117.773 10.2 119.927 12.2173 119.927 16.252C119.927 17.272 119.677 18.1787 119.179 18.972C118.703 19.7427 118.011 20.3547 117.105 20.808ZM115.507 17C115.507 16.0707 115.269 15.3793 114.793 14.926C114.339 14.45 113.693 14.212 112.855 14.212H107.245V19.516H112.957C113.637 19.516 114.226 19.2893 114.725 18.836C115.246 18.3827 115.507 17.7707 115.507 17ZM113.365 30.09C114.43 30.09 115.257 29.8067 115.847 29.24C116.459 28.6733 116.765 27.846 116.765 26.758C116.765 25.4207 116.413 24.548 115.711 24.14C115.008 23.732 114.147 23.528 113.127 23.528H107.245V30.09H113.365ZM147 22.1C147 24.344 146.501 26.4067 145.504 28.288C144.507 30.1467 143.124 31.62 141.356 32.708C139.611 33.796 137.639 34.34 135.44 34.34C133.241 34.34 131.258 33.796 129.49 32.708C127.744 31.62 126.373 30.1467 125.376 28.288C124.401 26.4067 123.914 24.344 123.914 22.1C123.914 19.856 124.401 17.8047 125.376 15.946C126.373 14.0647 127.744 12.58 129.49 11.492C131.258 10.404 133.241 9.86 135.44 9.86C137.639 9.86 139.611 10.404 141.356 11.492C143.124 12.58 144.507 14.0647 145.504 15.946C146.501 17.8047 147 19.856 147 22.1ZM142.58 22.1C142.58 20.5813 142.274 19.21 141.662 17.986C141.05 16.7393 140.2 15.7533 139.112 15.028C138.024 14.3027 136.8 13.94 135.44 13.94C134.057 13.94 132.822 14.3027 131.734 15.028C130.668 15.7307 129.83 16.7053 129.218 17.952C128.628 19.1987 128.334 20.5813 128.334 22.1C128.334 23.6187 128.628 25.0013 129.218 26.248C129.83 27.4947 130.668 28.4807 131.734 29.206C132.822 29.9087 134.057 30.26 135.44 30.26C136.8 30.26 138.024 29.8973 139.112 29.172C140.2 28.4467 141.05 27.472 141.662 26.248C142.274 25.0013 142.58 23.6187 142.58 22.1Z" fill="#121215"></path><path d="M146.65 37.3994H98.9501V39.4994H146.65V37.3994Z" fill="#C49863"></path></svg>